<svg width="127" height="36" viewBox="0 0 127 36" fill="none" xmlns="http://www.w3.org/2000/svg">
<path d="M8.38222 35.7119C8.38222 35.7119 1.79705 31.8283 2.47245 26.9317C3.14786 22.035 3.48556 19.1645 8.38222 15.6187C13.2789 12.0728 20.1173 6.07862 20.8772 5.06551C21.7214 3.96799 21.2993 3.79914 21.2993 3.79914C21.2993 3.79914 27.7156 13.508 28.5599 18.658C29.4041 23.8079 26.0271 30.4775 26.0271 30.4775C26.0271 30.4775 30.8393 24.4833 30.2484 18.9957C29.6574 13.508 20.7927 0 20.7927 0C20.7927 0 17.4157 4.81224 13.8699 7.6827C12.1814 9.0335 3.99211 15.1965 2.38803 17.7293C0.868376 20.2621 -4.45042 30.8996 8.38222 35.7119Z" fill="#0052CE"/>
<path d="M23.8321 21.109C21.2149 20.7713 17.669 17.9008 17.669 17.9008C17.669 17.9008 17.5002 17.8164 15.5584 17.8164C13.701 17.8164 10.9994 18.4074 10.9994 18.4074L8.12896 20.6869C8.12896 20.6869 7.45356 21.3623 6.35603 21.3623C5.25851 21.3623 4.75195 22.1221 4.75195 22.1221V25.3303H7.70684C7.70684 24.1483 8.63551 23.2196 9.81747 23.2196C10.9994 23.2196 11.9281 24.1483 11.9281 25.3303H20.9616C20.9616 24.1483 21.8903 23.2196 23.0722 23.2196C24.2542 23.2196 25.1829 24.1483 25.1829 25.3303H26.9558V22.9663C27.0402 23.0508 26.3648 21.4467 23.8321 21.109ZM9.81747 20.8557C9.81747 20.8557 10.4929 19.8426 11.8437 19.1672C13.1945 18.4918 17.3313 18.6607 17.3313 18.6607L20.2018 20.8557H9.81747Z" fill="#0052CE"/>
<path d="M11.7594 25.3309C11.7594 26.4284 10.8308 27.3571 9.73324 27.3571C8.63571 27.3571 7.70703 26.4284 7.70703 25.3309C7.70703 24.2334 8.63571 23.3047 9.73324 23.3047C10.9152 23.3891 11.7594 24.2334 11.7594 25.3309Z" fill="#0052CE"/>
<path d="M25.0983 25.3309C25.0983 26.4284 24.1696 27.3571 23.0721 27.3571C21.9746 27.3571 21.0459 26.4284 21.0459 25.3309C21.0459 24.2334 21.9746 23.3047 23.0721 23.3047C24.1696 23.3891 25.0983 24.2334 25.0983 25.3309Z" fill="#0052CE"/>
<path d="M42.32 21.4556C42.32 21.5401 42.32 21.5401 42.2355 21.6245C42.2355 21.6245 42.1511 21.7089 42.0667 21.7089C41.9822 21.7089 41.8978 21.7933 41.729 21.7933C41.6446 21.7933 41.4757 21.7933 41.2224 21.7933C41.0536 21.7933 40.8847 21.7933 40.7159 21.7933C40.6314 21.7933 40.4626 21.7933 40.4626 21.7089C40.3782 21.7089 40.3782 21.6245 40.2937 21.6245C40.2937 21.6245 40.2937 21.5401 40.2937 21.4556L41.8978 13.6885H38.2675L36.7479 21.4556C36.7479 21.5401 36.7479 21.5401 36.6635 21.6245C36.6635 21.6245 36.579 21.7089 36.4946 21.7089C36.4102 21.7089 36.3258 21.7933 36.1569 21.7933C35.9881 21.7933 35.9036 21.7933 35.6504 21.7933C35.4815 21.7933 35.3127 21.7933 35.1438 21.7933C35.0594 21.7933 34.8905 21.7933 34.8905 21.7089C34.8061 21.7089 34.8061 21.6245 34.7217 21.6245C34.7217 21.6245 34.7217 21.5401 34.7217 21.4556L36.4946 12.6754C36.4946 12.5066 36.579 12.3377 36.7479 12.1689C36.8323 12.0844 37.0012 12 37.17 12H43.5863C43.7552 12 43.924 12.0844 44.0085 12.1689C44.0929 12.2533 44.0929 12.4221 44.0929 12.6754L42.32 21.4556Z" fill="#0052CE"/>
<path d="M51.2701 16.223C51.2701 16.5607 51.1857 16.8984 51.0168 17.1517C50.848 17.405 50.5947 17.6583 50.257 17.9115C49.9193 18.0804 49.4972 18.2492 48.9906 18.4181C48.4841 18.5025 47.8086 18.5869 47.1332 18.5869H46.4578C46.4578 18.6714 46.4578 18.8402 46.3734 18.9246C46.3734 19.0091 46.3734 19.1779 46.3734 19.2623C46.3734 19.6845 46.4578 19.9377 46.7111 20.191C46.88 20.3599 47.2177 20.5287 47.7242 20.5287C48.0619 20.5287 48.3152 20.5287 48.5685 20.4443C48.8218 20.3599 49.075 20.3599 49.2439 20.2754C49.4127 20.191 49.5816 20.191 49.7504 20.1066C49.9193 20.0222 50.0037 20.0222 50.0037 20.0222C50.0881 20.0222 50.0881 20.0222 50.1726 20.1066C50.1726 20.1066 50.1726 20.191 50.1726 20.2754C50.1726 20.3599 50.1726 20.4443 50.1726 20.5287C50.1726 20.6131 50.1726 20.782 50.0881 20.8664C50.0881 20.9508 50.0037 21.0353 50.0037 21.2041C49.9193 21.2885 49.9193 21.373 49.8349 21.4574C49.7504 21.5418 49.666 21.5418 49.4972 21.6262C49.3283 21.7107 49.1595 21.7107 48.9062 21.7951C48.6529 21.8795 48.3996 21.8795 48.1464 21.8795C47.8931 21.8795 47.5554 21.9639 47.3021 21.9639C46.7955 21.9639 46.3734 21.8795 46.0357 21.7951C45.698 21.7107 45.3603 21.5418 45.107 21.373C44.8538 21.2041 44.6849 20.8664 44.6005 20.6131C44.5161 20.3599 44.4316 19.7689 44.4316 19.3468C44.4316 19.0091 44.4316 18.6714 44.5161 18.2492C44.6005 17.8271 44.6849 17.4894 44.8538 17.1517C45.0226 16.814 45.1915 16.3919 45.3603 16.0542C45.6136 15.7165 45.8669 15.3788 46.1201 15.1255C46.4578 14.8722 46.7956 14.7034 47.2177 14.5345C47.6398 14.3657 48.0619 14.2812 48.6529 14.2812C49.075 14.2812 49.4972 14.3657 49.8349 14.4501C50.1726 14.5345 50.4258 14.7034 50.6791 14.8722C50.848 15.0411 51.0168 15.2099 51.1857 15.4632C51.1857 15.8009 51.2701 15.9698 51.2701 16.223ZM49.4127 16.3919C49.4127 16.223 49.3283 16.0542 49.1595 15.8853C48.9906 15.7165 48.7373 15.7165 48.4841 15.7165C48.2308 15.7165 47.9775 15.8009 47.8087 15.8853C47.6398 15.9698 47.471 16.0542 47.3021 16.223C47.1332 16.3919 47.0488 16.5607 46.88 16.7296C46.7955 16.8984 46.7111 17.1517 46.6267 17.405H47.2177C47.6398 17.405 47.9775 17.405 48.2308 17.3206C48.4841 17.2361 48.7373 17.2361 48.9062 17.0673C49.075 16.9829 49.1595 16.8984 49.2439 16.7296C49.3283 16.6452 49.4127 16.5607 49.4127 16.3919Z" fill="#0052CE"/>
<path d="M62.2456 21.4511C62.2456 21.5355 62.2456 21.5355 62.1612 21.6199C62.1612 21.6199 62.0768 21.7044 61.9924 21.7044C61.9079 21.7044 61.8235 21.7888 61.6547 21.7888C61.5702 21.7888 61.4014 21.7888 61.2325 21.7888C61.0637 21.7888 60.8948 21.7888 60.8104 21.7888C60.726 21.7888 60.6416 21.7888 60.5571 21.7044C60.4727 21.7044 60.4727 21.6199 60.3883 21.6199C60.3883 21.6199 60.3883 21.5355 60.3883 21.4511L61.1481 17.4831C61.1481 17.3987 61.1481 17.2298 61.2325 17.1454C61.2325 17.061 61.2325 16.8921 61.2325 16.8077C61.2325 16.5544 61.1481 16.3856 61.0637 16.2167C60.9792 16.0479 60.8104 15.9635 60.5571 15.9635C60.3883 15.9635 60.135 16.0479 59.9662 16.1323C59.7129 16.3012 59.544 16.47 59.3752 16.6389C59.2063 16.8921 59.0375 17.1454 58.8686 17.3987C58.6998 17.7364 58.6153 17.9897 58.5309 18.3274L57.9399 21.4511C57.9399 21.5355 57.9399 21.5355 57.8555 21.6199C57.8555 21.6199 57.7711 21.7044 57.6867 21.7044C57.6022 21.7044 57.5178 21.7888 57.349 21.7888C57.2645 21.7888 57.0957 21.7888 56.9268 21.7888C56.758 21.7888 56.5891 21.7888 56.5047 21.7888C56.4203 21.7888 56.3359 21.7888 56.2514 21.7044C56.167 21.7044 56.167 21.6199 56.0826 21.6199C56.0826 21.6199 56.0826 21.5355 56.0826 21.4511L56.8424 17.4831C56.8424 17.3987 56.9268 17.2298 56.9268 17.1454C56.9268 17.061 56.9268 16.8921 56.9268 16.8077C56.9268 16.5544 56.8424 16.3856 56.758 16.3012C56.6736 16.1323 56.5047 16.0479 56.3359 16.0479C56.167 16.0479 55.9137 16.1323 55.7449 16.2167C55.4916 16.3856 55.3228 16.5544 55.1539 16.7233C54.9851 16.9766 54.8162 17.2298 54.6474 17.4831C54.4785 17.8208 54.3941 18.0741 54.3097 18.4118L53.7187 21.4511C53.7187 21.5355 53.7187 21.5355 53.6343 21.6199C53.6343 21.6199 53.5498 21.7044 53.4654 21.7044C53.381 21.7044 53.2966 21.7888 53.1277 21.7888C53.0433 21.7888 52.8744 21.7888 52.7056 21.7888C52.5367 21.7888 52.3679 21.7888 52.2835 21.7888C52.199 21.7888 52.1146 21.7888 52.0302 21.7044C51.9458 21.7044 51.9458 21.6199 51.8613 21.6199C51.8613 21.6199 51.8613 21.5355 51.8613 21.4511L53.2121 14.7815C53.2121 14.6971 53.2121 14.6971 53.2966 14.6127C53.2966 14.6127 53.381 14.5282 53.4654 14.5282C53.5498 14.5282 53.6343 14.5282 53.7187 14.4438C53.8031 14.4438 53.972 14.4438 54.1408 14.4438C54.3097 14.4438 54.3941 14.4438 54.4785 14.4438C54.5629 14.4438 54.6474 14.4438 54.7318 14.5282C54.8162 14.5282 54.8162 14.6127 54.8162 14.6127C54.8162 14.6127 54.8162 14.6971 54.8162 14.7815L54.5629 15.879C54.6474 15.7102 54.8162 15.5413 54.9851 15.3725C55.1539 15.2036 55.3228 15.0348 55.576 14.8659C55.8293 14.6971 55.9982 14.6127 56.3359 14.5282C56.5891 14.4438 56.8424 14.3594 57.1801 14.3594C57.4334 14.3594 57.6867 14.3594 57.9399 14.4438C58.1932 14.5282 58.3621 14.6127 58.4465 14.7815C58.6153 14.9504 58.6998 15.1192 58.7842 15.2881C58.8686 15.4569 58.8686 15.7102 58.953 15.879C59.0375 15.7102 59.2063 15.5413 59.3752 15.3725C59.544 15.2036 59.7129 15.0348 59.9662 14.8659C60.2194 14.6971 60.3883 14.6127 60.726 14.5282C60.9793 14.4438 61.2325 14.3594 61.4858 14.3594C61.8235 14.3594 62.1612 14.4438 62.3301 14.5282C62.5833 14.6127 62.7522 14.7815 62.921 14.9504C63.0899 15.1192 63.1743 15.2881 63.2587 15.5413C63.3432 15.7946 63.3432 16.0479 63.3432 16.3012C63.3432 16.47 63.3432 16.6389 63.3432 16.8077C63.3432 16.9766 63.2587 17.1454 63.2587 17.3143L62.2456 21.4511Z" fill="#0052CE"/>
<path d="M71.4477 16.8921C71.4477 17.2298 71.4477 17.5675 71.3633 17.9052C71.2788 18.2429 71.1944 18.6651 71.11 19.0028C71.0256 19.3405 70.8567 19.7626 70.6034 20.1003C70.4346 20.438 70.1813 20.7757 69.928 21.029C69.6748 21.2822 69.3371 21.5355 68.9994 21.6199C68.6617 21.7888 68.2395 21.8732 67.8174 21.8732C67.6486 21.8732 67.3953 21.8732 67.2264 21.7888C67.0576 21.7888 66.8887 21.7044 66.7199 21.6199C66.551 21.5355 66.4666 21.4511 66.2978 21.3667C66.2133 21.2822 66.0445 21.1978 65.9601 21.029L65.3691 24.0683C65.3691 24.1527 65.3691 24.1527 65.2846 24.2371C65.2846 24.2371 65.2002 24.3216 65.1158 24.3216C65.0314 24.3216 64.9469 24.406 64.7781 24.406C64.6937 24.406 64.5248 24.406 64.356 24.406C64.1871 24.406 64.0183 24.406 63.9338 24.406C63.8494 24.406 63.765 24.406 63.6806 24.3216C63.5961 24.3216 63.5961 24.2371 63.5117 24.2371C63.5117 24.2371 63.5117 24.1527 63.5117 24.0683L65.3691 14.7815C65.3691 14.6971 65.4535 14.6127 65.6223 14.5282C65.7912 14.4438 65.9601 14.4438 66.2978 14.4438C66.4666 14.4438 66.551 14.4438 66.6355 14.4438C66.7199 14.4438 66.8043 14.4438 66.8887 14.5282C66.9732 14.6127 66.9732 14.6127 66.9732 14.6127C66.9732 14.6127 66.9732 14.6971 66.9732 14.7815L66.8043 15.879C66.8887 15.7102 66.9732 15.5413 67.142 15.3725C67.3109 15.2036 67.4797 15.0348 67.733 14.8659C67.9863 14.6971 68.2395 14.6127 68.4928 14.5282C68.7461 14.4438 69.0838 14.3594 69.3371 14.3594C69.7592 14.3594 70.0125 14.4438 70.2657 14.5282C70.519 14.6971 70.7723 14.8659 70.9411 15.0348C71.11 15.2881 71.1944 15.5413 71.2788 15.879C71.4477 16.2167 71.4477 16.5544 71.4477 16.8921ZM69.5059 17.061C69.5059 16.8921 69.5059 16.7233 69.5059 16.6389C69.5059 16.47 69.4215 16.3856 69.3371 16.3012C69.2526 16.2167 69.1682 16.1323 69.0838 16.0479C68.9994 15.9635 68.8305 15.9635 68.7461 15.9635C68.4928 15.9635 68.324 16.0479 68.0707 16.1323C67.8174 16.3012 67.6486 16.47 67.3953 16.6389C67.2264 16.8921 67.0576 17.1454 66.8887 17.3987C66.7199 17.7364 66.6355 17.9897 66.551 18.3274L66.3822 19.3405C66.551 19.5937 66.7199 19.847 66.9732 19.9314C67.2264 20.1003 67.3953 20.1003 67.733 20.1003C67.9018 20.1003 68.1551 20.0159 68.324 19.9314C68.4928 19.847 68.6617 19.6782 68.7461 19.5093C68.9149 19.3405 68.9994 19.1716 69.0838 18.9183C69.1682 18.6651 69.2526 18.4962 69.3371 18.2429C69.4215 17.9897 69.4215 17.7364 69.5059 17.4831C69.5059 17.4831 69.5059 17.2298 69.5059 17.061Z" fill="#0052CE"/>
<path d="M79.5531 16.9829C79.5531 17.3206 79.5531 17.7427 79.4687 18.0804C79.3843 18.4181 79.2998 18.8402 79.131 19.1779C78.9621 19.5156 78.7933 19.8533 78.54 20.191C78.2867 20.5287 78.0334 20.782 77.6957 21.0353C77.358 21.2885 77.0203 21.4574 76.5982 21.6262C76.1761 21.7951 75.754 21.7951 75.2474 21.7951C74.7409 21.7951 74.3187 21.7107 73.981 21.6262C73.6433 21.5418 73.3056 21.373 73.0524 21.1197C72.7991 20.8664 72.6302 20.6131 72.5458 20.2754C72.4614 19.9377 72.377 19.6 72.377 19.0935C72.377 18.7558 72.377 18.3337 72.4614 17.996C72.5458 17.6583 72.6302 17.2361 72.7991 16.8984C72.9679 16.5607 73.1368 16.223 73.3901 15.8853C73.6433 15.5476 73.8966 15.2944 74.2343 15.0411C74.572 14.7878 74.9097 14.619 75.3318 14.4501C75.754 14.2813 76.1761 14.2812 76.6826 14.2812C77.1892 14.2812 77.6113 14.3657 77.949 14.4501C78.2867 14.5345 78.6244 14.7034 78.8777 14.9567C79.131 15.2099 79.2998 15.4632 79.3843 15.8009C79.4687 16.223 79.5531 16.5607 79.5531 16.9829ZM77.6113 17.1517C77.6113 16.9829 77.6113 16.7296 77.5269 16.5607C77.5269 16.3919 77.4425 16.223 77.358 16.1386C77.2736 16.0542 77.1048 15.9698 77.0203 15.8853C76.8515 15.8009 76.6826 15.8009 76.4294 15.8009C76.1761 15.8009 75.9228 15.8853 75.754 15.9698C75.5851 16.0542 75.4163 16.223 75.2474 16.3919C75.0786 16.5607 74.9941 16.7296 74.8253 16.9829C74.7409 17.2361 74.6564 17.405 74.572 17.6583C74.4876 17.9115 74.4032 18.1648 74.4032 18.4181C74.4032 18.6714 74.3187 18.9246 74.3187 19.0935C74.3187 19.2623 74.3187 19.5156 74.4032 19.6845C74.4032 19.8533 74.4876 20.0222 74.572 20.1066C74.6564 20.191 74.8253 20.2754 74.9097 20.3599C75.0786 20.4443 75.2474 20.4443 75.5007 20.4443C75.754 20.4443 76.0072 20.3599 76.1761 20.2754C76.3449 20.191 76.5138 20.0222 76.6826 19.8533C76.8515 19.6845 76.9359 19.5156 77.1048 19.2623C77.1892 19.0091 77.2736 18.8402 77.358 18.5869C77.4425 18.3337 77.5269 18.0804 77.5269 17.8271C77.6113 17.5738 77.6113 17.405 77.6113 17.1517Z" fill="#0052CE"/>
<path d="M89.6834 21.3682C89.6834 21.4526 89.599 21.6215 89.4301 21.6215C89.2613 21.7059 89.0924 21.7059 88.7547 21.7059C88.5859 21.7059 88.417 21.7059 88.3326 21.7059C88.2482 21.7059 88.1638 21.7059 88.0793 21.7059C87.9949 21.7059 87.9949 21.6215 87.9949 21.6215C87.9949 21.6215 87.9949 21.537 87.9949 21.4526L88.3326 17.9067C88.3326 17.8223 88.3326 17.6535 88.417 17.4846C88.417 17.3158 88.5015 17.1469 88.5015 16.9781C88.5015 16.8092 88.5859 16.6404 88.5859 16.3871C88.5859 16.2182 88.6703 16.0494 88.6703 15.8805C88.5859 16.0494 88.5015 16.1338 88.417 16.3027C88.3326 16.4715 88.2482 16.6404 88.1638 16.8092C88.0793 16.9781 87.9949 17.1469 87.9105 17.3158C87.8261 17.4846 87.7416 17.6535 87.6572 17.7379L85.7154 21.4526C85.7154 21.537 85.631 21.537 85.631 21.6215C85.631 21.7059 85.5466 21.7059 85.4622 21.7059C85.3777 21.7059 85.2933 21.7903 85.1245 21.7903C85.04 21.7903 84.8712 21.7903 84.7023 21.7903C84.5335 21.7903 84.449 21.7903 84.2802 21.7903C84.1958 21.7903 84.1113 21.7903 84.0269 21.7059C83.9425 21.7059 83.9425 21.6215 83.8581 21.6215C83.8581 21.537 83.7737 21.537 83.7737 21.4526L83.3515 17.7379C83.3515 17.569 83.3515 17.4002 83.2671 17.2313C83.2671 17.0625 83.2671 16.8936 83.2671 16.7248C83.2671 16.5559 83.2671 16.3871 83.2671 16.2182C83.2671 16.0494 83.2671 15.965 83.2671 15.7961C83.2671 15.965 83.1827 16.1338 83.1827 16.3027C83.0982 16.4715 83.0982 16.6404 83.0138 16.8092C82.9294 16.9781 82.9294 17.1469 82.845 17.3158C82.7605 17.4846 82.7605 17.6535 82.6761 17.8223L81.5786 21.3682C81.5786 21.4526 81.4942 21.4526 81.4942 21.537C81.4942 21.6215 81.4097 21.6215 81.3253 21.6215C81.2409 21.6215 81.1565 21.6215 81.072 21.7059C80.9876 21.7059 80.8188 21.7059 80.5655 21.7059C80.3966 21.7059 80.2278 21.7059 80.1434 21.7059C80.0589 21.7059 79.9745 21.7059 79.8901 21.6215C79.8057 21.6215 79.8057 21.537 79.8057 21.537C79.8057 21.537 79.8057 21.4526 79.8057 21.3682L81.7474 15.1207C81.8319 14.8674 81.9163 14.783 82.0851 14.6142C82.254 14.5297 82.4228 14.4453 82.6761 14.4453H83.5204C83.6892 14.4453 83.8581 14.4453 84.0269 14.5297C84.1958 14.5297 84.2802 14.6142 84.3646 14.6986C84.4491 14.783 84.5335 14.8674 84.5335 15.0363C84.6179 15.2051 84.6179 15.2896 84.6179 15.5428L84.8712 17.8223C84.8712 17.9912 84.8712 18.16 84.9556 18.3289C84.9556 18.4977 84.9556 18.6666 84.9556 18.8354C84.9556 19.0043 84.9556 19.1731 84.9556 19.342C84.9556 19.5108 84.9556 19.5953 84.9556 19.7641C85.04 19.5953 85.04 19.5108 85.1245 19.342C85.2089 19.1731 85.2933 19.0043 85.3777 18.8354C85.4622 18.6666 85.5466 18.4977 85.631 18.3289C85.7154 18.16 85.7999 17.9912 85.8843 17.9067L87.0662 15.6273C87.1507 15.4584 87.2351 15.2896 87.3195 15.2051C87.4039 15.0363 87.4884 14.9519 87.6572 14.8674C87.7416 14.783 87.9105 14.6986 88.0793 14.6986C88.2482 14.6986 88.417 14.6142 88.5859 14.6142H89.599C89.8523 14.6142 90.0211 14.6986 90.1055 14.783C90.19 14.8674 90.2744 15.0363 90.19 15.2896L89.6834 21.3682Z" fill="#0052CE"/>
<path d="M97.3657 21.4511C97.3657 21.5355 97.2813 21.6199 97.1124 21.7044C96.9436 21.7888 96.7748 21.7888 96.4371 21.7888C96.2682 21.7888 96.1838 21.7888 96.0993 21.7888C96.0149 21.7888 95.9305 21.7888 95.8461 21.7044C95.7616 21.7044 95.7617 21.6199 95.7617 21.6199C95.7617 21.6199 95.7617 21.5355 95.7617 21.4511L95.9305 20.3536C95.8461 20.5224 95.7617 20.6913 95.5928 20.8601C95.424 21.029 95.2551 21.1978 95.0018 21.3667C94.7485 21.5355 94.4953 21.6199 94.242 21.7044C93.9887 21.7888 93.651 21.8732 93.3977 21.8732C92.9756 21.8732 92.6379 21.7888 92.3846 21.7044C92.1314 21.5355 91.8781 21.3667 91.7092 21.1134C91.5404 20.8601 91.456 20.6068 91.3715 20.2691C91.2871 19.9314 91.2871 19.6782 91.2871 19.3405C91.2871 19.0028 91.2871 18.6651 91.3715 18.3274C91.456 17.9897 91.5404 17.5675 91.6248 17.2298C91.7092 16.8921 91.8781 16.47 92.1314 16.1323C92.3002 15.7946 92.5535 15.4569 92.8068 15.2036C93.06 14.9504 93.3977 14.6971 93.7354 14.6127C94.0731 14.4438 94.4953 14.3594 94.9174 14.3594C95.3395 14.3594 95.6772 14.4438 96.0149 14.6127C96.3526 14.7815 96.6059 15.0348 96.8592 15.3725L96.9436 14.7815C96.9436 14.6971 97.028 14.6127 97.1969 14.5282C97.3657 14.4438 97.5346 14.4438 97.8723 14.4438C98.0411 14.4438 98.1256 14.4438 98.21 14.4438C98.2944 14.4438 98.3788 14.4438 98.4633 14.5282C98.5477 14.5282 98.5477 14.6127 98.5477 14.6127C98.5477 14.6127 98.5477 14.6971 98.5477 14.7815L97.3657 21.4511ZM96.4371 16.8077C96.2682 16.5544 96.0993 16.3012 95.8461 16.2167C95.5928 16.0479 95.4239 16.0479 95.0862 16.0479C94.9174 16.0479 94.6641 16.1323 94.4953 16.2167C94.3264 16.3012 94.1576 16.47 93.9887 16.6389C93.8199 16.8077 93.7354 16.9766 93.651 17.2298C93.5666 17.4831 93.4822 17.652 93.3977 17.9052C93.3133 18.1585 93.3133 18.4118 93.2289 18.6651C93.2289 18.9183 93.1445 19.1716 93.1445 19.3405C93.1445 19.5093 93.1445 19.5937 93.1445 19.7626C93.1445 19.9314 93.2289 20.0159 93.2289 20.1003C93.2289 20.1847 93.3977 20.2691 93.4822 20.3536C93.5666 20.438 93.7354 20.438 93.9043 20.438C94.1576 20.438 94.3264 20.3536 94.5797 20.2691C94.833 20.1003 95.0018 19.9314 95.2551 19.7626C95.4239 19.5093 95.5928 19.256 95.7617 19.0028C95.9305 18.6651 96.0149 18.4118 96.0993 18.0741L96.4371 16.8077Z" fill="#0052CE"/>
<path d="M109.776 21.4574C109.776 21.5418 109.776 21.5418 109.692 21.6262C109.692 21.6262 109.608 21.7107 109.523 21.7107C109.439 21.7107 109.354 21.7951 109.185 21.7951C109.101 21.7951 108.932 21.7951 108.763 21.7951C108.594 21.7951 108.426 21.7951 108.341 21.7951C108.257 21.7951 108.088 21.7951 108.088 21.7107C108.003 21.7107 108.003 21.6262 107.919 21.6262C107.919 21.6262 107.919 21.5418 107.919 21.4574L108.679 17.4894C108.679 17.405 108.679 17.2361 108.763 17.1517C108.763 17.0673 108.763 16.8984 108.763 16.814C108.763 16.5607 108.679 16.3919 108.594 16.223C108.51 16.0542 108.341 15.9698 108.088 15.9698C107.919 15.9698 107.666 16.0542 107.497 16.1386C107.244 16.3075 107.075 16.4763 106.906 16.6452C106.737 16.8984 106.568 17.1517 106.399 17.405C106.23 17.7427 106.146 17.996 106.062 18.3337L105.471 21.373C105.471 21.4574 105.471 21.4574 105.386 21.5418C105.386 21.5418 105.302 21.6262 105.217 21.6262C105.133 21.6262 105.049 21.7107 104.88 21.7107C104.711 21.7107 104.626 21.7107 104.458 21.7107C104.289 21.7107 104.12 21.7107 104.035 21.7107C103.951 21.7107 103.867 21.7107 103.782 21.6262C103.698 21.6262 103.698 21.5418 103.613 21.5418C103.613 21.5418 103.613 21.4574 103.613 21.373L104.373 17.405C104.373 17.3206 104.458 17.1517 104.458 17.0673C104.458 16.9829 104.458 16.814 104.458 16.7296C104.458 16.4763 104.373 16.3075 104.289 16.223C104.204 16.0542 104.035 15.9698 103.782 15.9698C103.613 15.9698 103.36 16.0542 103.191 16.1386C102.938 16.3075 102.769 16.4763 102.6 16.6452C102.431 16.8984 102.263 17.1517 102.094 17.405C101.925 17.7427 101.84 17.996 101.756 18.3337L101.165 21.373C101.165 21.4574 101.165 21.4574 101.081 21.5418C101.081 21.5418 100.996 21.6262 100.912 21.6262C100.827 21.6262 100.743 21.7107 100.574 21.7107C100.49 21.7107 100.321 21.7107 100.152 21.7107C99.983 21.7107 99.8142 21.7107 99.7297 21.7107C99.6453 21.7107 99.5609 21.7107 99.4765 21.6262C99.392 21.6262 99.392 21.5418 99.3076 21.5418C99.3076 21.5418 99.3076 21.4574 99.3076 21.373L100.658 14.7034C100.658 14.619 100.658 14.619 100.743 14.5345C100.743 14.5345 100.827 14.4501 100.912 14.4501C100.996 14.4501 101.081 14.4501 101.165 14.3657C101.249 14.3657 101.418 14.3657 101.587 14.3657C101.756 14.3657 101.84 14.3657 101.925 14.3657C102.009 14.3657 102.094 14.3657 102.178 14.4501C102.262 14.4501 102.263 14.5345 102.263 14.5345C102.263 14.5345 102.263 14.619 102.263 14.7034L102.009 15.8009C102.094 15.6321 102.262 15.4632 102.431 15.2944C102.6 15.1255 102.769 14.9567 103.022 14.7878C103.276 14.6189 103.444 14.5345 103.782 14.4501C104.035 14.3657 104.289 14.2812 104.626 14.2812C104.88 14.2812 105.133 14.2812 105.386 14.3657C105.64 14.4501 105.808 14.5345 105.893 14.7034C106.062 14.8722 106.146 15.0411 106.23 15.2099C106.315 15.3788 106.315 15.6321 106.399 15.8009C106.484 15.6321 106.653 15.4632 106.821 15.2944C106.99 15.1255 107.159 14.9567 107.412 14.7878C107.666 14.6189 107.835 14.5345 108.172 14.4501C108.426 14.3657 108.679 14.2812 108.932 14.2812C109.27 14.2812 109.607 14.3657 109.776 14.4501C110.03 14.5345 110.198 14.7034 110.367 14.8722C110.536 15.0411 110.621 15.2099 110.705 15.4632C110.789 15.7165 110.789 15.9698 110.789 16.223C110.789 16.3919 110.789 16.5607 110.789 16.7296C110.789 16.8984 110.705 17.0673 110.705 17.2361L109.776 21.4574Z" fill="#0052CE"/>
<path d="M117.797 21.4526C117.797 21.537 117.797 21.537 117.713 21.6215C117.713 21.6215 117.629 21.7059 117.544 21.7059C117.46 21.7059 117.375 21.7059 117.291 21.7903C117.206 21.7903 117.038 21.7903 116.869 21.7903C116.7 21.7903 116.616 21.7903 116.531 21.7903C116.447 21.7903 116.362 21.7903 116.278 21.7059C116.193 21.7059 116.193 21.6215 116.193 21.6215C116.193 21.6215 116.193 21.537 116.193 21.4526L116.362 20.3551C116.278 20.5239 116.109 20.6928 115.94 20.8616C115.771 21.0305 115.602 21.1993 115.349 21.3682C115.096 21.537 114.843 21.6215 114.589 21.7059C114.336 21.7903 114.083 21.8747 113.745 21.8747C113.407 21.8747 113.07 21.7903 112.901 21.7059C112.648 21.6215 112.479 21.4526 112.31 21.2838C112.141 21.1149 112.057 20.9461 111.972 20.6928C111.888 20.4395 111.888 20.1862 111.888 19.933C111.888 19.7641 111.888 19.5953 111.888 19.4264C111.888 19.2575 111.972 19.0887 111.972 18.9198L112.816 14.783C112.816 14.6986 112.816 14.6986 112.901 14.6142C112.901 14.6142 112.985 14.5297 113.07 14.5297C113.154 14.5297 113.239 14.5297 113.407 14.4453C113.492 14.4453 113.661 14.4453 113.829 14.4453C113.998 14.4453 114.167 14.4453 114.252 14.4453C114.336 14.4453 114.42 14.4453 114.505 14.5297C114.589 14.5297 114.589 14.6142 114.674 14.6142C114.674 14.6142 114.674 14.6986 114.674 14.783L113.914 18.751C113.914 18.8354 113.829 19.0043 113.829 19.0887C113.829 19.1731 113.829 19.342 113.829 19.4264C113.829 19.5108 113.829 19.6797 113.829 19.7641C113.829 19.8485 113.914 19.933 113.914 20.0174C113.998 20.1018 113.998 20.1018 114.083 20.1862C114.167 20.1862 114.252 20.2707 114.336 20.2707C114.505 20.2707 114.758 20.1862 115.011 20.1018C115.265 19.933 115.434 19.7641 115.602 19.5953C115.771 19.342 115.94 19.0887 116.109 18.751C116.278 18.4133 116.362 18.0756 116.447 17.7379L117.038 14.8674C117.038 14.783 117.038 14.783 117.122 14.6986C117.122 14.6986 117.206 14.6142 117.291 14.6142C117.375 14.6142 117.46 14.6142 117.629 14.5297C117.713 14.5297 117.882 14.5297 118.051 14.5297C118.22 14.5297 118.388 14.5297 118.473 14.5297C118.557 14.5297 118.642 14.5297 118.726 14.6142C118.811 14.6142 118.811 14.6986 118.895 14.6986C118.895 14.6986 118.895 14.783 118.895 14.8674L117.797 21.4526Z" fill="#0052CE"/>
<path d="M125.902 21.4511C125.902 21.5355 125.902 21.5355 125.902 21.6199C125.902 21.6199 125.818 21.7044 125.733 21.7044C125.649 21.7044 125.565 21.7888 125.396 21.7888C125.311 21.7888 125.142 21.7888 124.889 21.7888C124.72 21.7888 124.551 21.7888 124.383 21.7888C124.214 21.7888 124.129 21.7888 124.045 21.7044C123.961 21.7044 123.961 21.6199 123.876 21.6199C123.876 21.6199 123.792 21.5355 123.792 21.4511L123.454 19.847C123.37 19.5937 123.37 19.4249 123.285 19.3405C123.201 19.1716 123.116 19.0872 123.032 19.0028C122.947 18.9183 122.863 18.8339 122.694 18.8339C122.61 18.8339 122.441 18.7495 122.272 18.7495H122.103L121.597 21.4511C121.597 21.4511 121.597 21.5355 121.512 21.5355C121.512 21.5355 121.428 21.6199 121.343 21.6199C121.259 21.6199 121.174 21.7044 121.006 21.7044C120.921 21.7044 120.752 21.7044 120.584 21.7044C120.415 21.7044 120.246 21.7044 120.161 21.7044C120.077 21.7044 119.993 21.7044 119.908 21.6199C119.824 21.6199 119.824 21.5355 119.739 21.5355V21.4511L121.09 14.6971C121.09 14.6971 121.09 14.6127 121.174 14.6127C121.174 14.6127 121.259 14.5282 121.343 14.5282C121.428 14.5282 121.512 14.5282 121.681 14.4438C121.765 14.4438 121.934 14.4438 122.103 14.4438C122.272 14.4438 122.441 14.4438 122.525 14.4438C122.61 14.4438 122.694 14.4438 122.779 14.5282C122.863 14.5282 122.863 14.6127 122.947 14.6127V14.6971L122.441 17.3143H122.863C123.032 17.3143 123.116 17.3143 123.285 17.2298C123.454 17.2298 123.538 17.1454 123.623 17.061C123.707 16.9766 123.876 16.8921 123.961 16.7233C124.045 16.5544 124.214 16.3856 124.298 16.1323L125.142 14.6971C125.142 14.6127 125.227 14.6127 125.227 14.5282C125.311 14.5282 125.311 14.4438 125.396 14.4438C125.48 14.4438 125.565 14.4438 125.733 14.3594C125.902 14.3594 126.071 14.3594 126.24 14.3594C126.409 14.3594 126.578 14.3594 126.662 14.3594C126.747 14.3594 126.831 14.3594 126.915 14.3594C127 14.3594 127 14.3594 127 14.4438V14.5282C127 14.6127 127 14.6127 126.915 14.6971C126.915 14.7815 126.831 14.8659 126.747 15.0348L125.902 16.3856C125.733 16.6389 125.649 16.8077 125.48 16.9766C125.311 17.1454 125.227 17.3143 125.058 17.3987C124.889 17.4831 124.805 17.652 124.636 17.7364C124.467 17.8208 124.383 17.9052 124.214 17.9052C124.383 17.9897 124.467 17.9897 124.551 18.0741C124.636 18.1585 124.805 18.2429 124.889 18.4118C124.974 18.4962 125.058 18.6651 125.142 18.8339C125.227 19.0028 125.311 19.1716 125.311 19.4249L125.649 20.9445C125.649 21.029 125.649 21.1134 125.649 21.1978C125.902 21.3667 125.902 21.3667 125.902 21.4511Z" fill="#0052CE"/>
</svg>
